<svg height="1678" width="720" xmlns="http://www.w3.org/2000/svg">
<rect height="1678" fill="#555" width="720"></rect>
<text fill="#7f7" font-family="Courier New" font-size="12" xml:space="preserve">
<tspan x="10" y="26">└─┬ grunt-responsive-images@1.10.1 </tspan>
<tspan x="10" y="42">  ├── async@1.5.2 </tspan>
<tspan x="10" y="58">  ├─┬ gm@1.23.0 </tspan>
<tspan x="10" y="74">  │ ├── array-parallel@0.1.3 </tspan>
<tspan x="10" y="90">  │ ├── array-series@0.1.5 </tspan>
<tspan x="10" y="106">  │ ├─┬ cross-spawn@4.0.2 </tspan>
<tspan x="10" y="122">  │ │ ├─┬ lru-cache@4.0.2 </tspan>
<tspan x="10" y="138">  │ │ │ ├── pseudomap@1.0.2 </tspan>
<tspan x="10" y="154">  │ │ │ └── yallist@2.1.2 </tspan>
<tspan x="10" y="170">  │ │ └─┬ which@1.2.14 </tspan>
<tspan x="10" y="186">  │ │   └── isexe@2.0.0 </tspan>
<tspan x="10" y="202">  │ └─┬ debug@2.2.0 </tspan>
<tspan x="10" y="218">  │   └── ms@0.7.1 </tspan>
<tspan x="10" y="234">  ├─┬ grunt@1.0.1 </tspan>
<tspan x="10" y="250">  │ ├── coffee-script@1.10.0 </tspan>
<tspan x="10" y="266">  │ ├─┬ dateformat@1.0.12 </tspan>
<tspan x="10" y="282">  │ │ ├── get-stdin@4.0.1 </tspan>
<tspan x="10" y="298">  │ │ └─┬ meow@3.7.0 </tspan>
<tspan x="10" y="314">  │ │   ├─┬ camelcase-keys@2.1.0 </tspan>
<tspan x="10" y="330">  │ │   │ └── camelcase@2.1.1 </tspan>
<tspan x="10" y="346">  │ │   ├── decamelize@1.2.0 </tspan>
<tspan x="10" y="362">  │ │   ├─┬ loud-rejection@1.6.0 </tspan>
<tspan x="10" y="378">  │ │   │ ├─┬ currently-unhandled@0.4.1 </tspan>
<tspan x="10" y="394">  │ │   │ │ └── array-find-index@1.0.2 </tspan>
<tspan x="10" y="410">  │ │   │ └── signal-exit@3.0.2 </tspan>
<tspan x="10" y="426">  │ │   ├── map-obj@1.0.1 </tspan>
<tspan x="10" y="442">  │ │   ├── minimist@1.2.0 </tspan>
<tspan x="10" y="458">  │ │   ├─┬ normalize-package-data@2.3.6 </tspan>
<tspan x="10" y="474">  │ │   │ ├── hosted-git-info@2.4.1 </tspan>
<tspan x="10" y="490">  │ │   │ ├─┬ is-builtin-module@1.0.0 </tspan>
<tspan x="10" y="506">  │ │   │ │ └── builtin-modules@1.1.1 </tspan>
<tspan x="10" y="522">  │ │   │ ├── semver@5.3.0 </tspan>
<tspan x="10" y="538">  │ │   │ └─┬ validate-npm-package-license@3.0.1 </tspan>
<tspan x="10" y="554">  │ │   │   ├─┬ spdx-correct@1.0.2 </tspan>
<tspan x="10" y="570">  │ │   │   │ └── spdx-license-ids@1.2.2 </tspan>
<tspan x="10" y="586">  │ │   │   └── spdx-expression-parse@1.0.4 </tspan>
<tspan x="10" y="602">  │ │   ├── object-assign@4.1.1 </tspan>
<tspan x="10" y="618">  │ │   ├─┬ read-pkg-up@1.0.1 </tspan>
<tspan x="10" y="634">  │ │   │ ├─┬ find-up@1.1.2 </tspan>
<tspan x="10" y="650">  │ │   │ │ ├── path-exists@2.1.0 </tspan>
<tspan x="10" y="666">  │ │   │ │ └─┬ pinkie-promise@2.0.1 </tspan>
<tspan x="10" y="682">  │ │   │ │   └── pinkie@2.0.4 </tspan>
<tspan x="10" y="698">  │ │   │ └─┬ read-pkg@1.1.0 </tspan>
<tspan x="10" y="714">  │ │   │   ├─┬ load-json-file@1.1.0 </tspan>
<tspan x="10" y="730">  │ │   │   │ ├── graceful-fs@4.1.11 </tspan>
<tspan x="10" y="746">  │ │   │   │ ├─┬ parse-json@2.2.0 </tspan>
<tspan x="10" y="762">  │ │   │   │ │ └─┬ error-ex@1.3.1 </tspan>
<tspan x="10" y="778">  │ │   │   │ │   └── is-arrayish@0.2.1 </tspan>
<tspan x="10" y="794">  │ │   │   │ ├── pify@2.3.0 </tspan>
<tspan x="10" y="810">  │ │   │   │ └─┬ strip-bom@2.0.0 </tspan>
<tspan x="10" y="826">  │ │   │   │   └── is-utf8@0.2.1 </tspan>
<tspan x="10" y="842">  │ │   │   └── path-type@1.1.0 </tspan>
<tspan x="10" y="858">  │ │   ├─┬ redent@1.0.0 </tspan>
<tspan x="10" y="874">  │ │   │ ├─┬ indent-string@2.1.0 </tspan>
<tspan x="10" y="890">  │ │   │ │ └─┬ repeating@2.0.1 </tspan>
<tspan x="10" y="906">  │ │   │ │   └─┬ is-finite@1.0.2 </tspan>
<tspan x="10" y="922">  │ │   │ │     └── number-is-nan@1.0.1 </tspan>
<tspan x="10" y="938">  │ │   │ └── strip-indent@1.0.1 </tspan>
<tspan x="10" y="954">  │ │   └── trim-newlines@1.0.0 </tspan>
<tspan x="10" y="970">  │ ├── eventemitter2@0.4.14 </tspan>
<tspan x="10" y="986">  │ ├── exit@0.1.2 </tspan>
<tspan x="10" y="1002">  │ ├─┬ findup-sync@0.3.0 </tspan>
<tspan x="10" y="1018">  │ │ └── glob@5.0.15 </tspan>
<tspan x="10" y="1034">  │ ├─┬ glob@7.0.6 </tspan>
<tspan x="10" y="1050">  │ │ ├── fs.realpath@1.0.0 </tspan>
<tspan x="10" y="1066">  │ │ ├─┬ inflight@1.0.6 </tspan>
<tspan x="10" y="1082">  │ │ │ └── wrappy@1.0.2 </tspan>
<tspan x="10" y="1098">  │ │ ├── inherits@2.0.3 </tspan>
<tspan x="10" y="1114">  │ │ └── once@1.4.0 </tspan>
<tspan x="10" y="1130">  │ ├─┬ grunt-cli@1.2.0 </tspan>
<tspan x="10" y="1146">  │ │ └── resolve@1.1.7 </tspan>
<tspan x="10" y="1162">  │ ├── grunt-known-options@1.1.0 </tspan>
<tspan x="10" y="1178">  │ ├─┬ grunt-legacy-log@1.0.0 </tspan>
<tspan x="10" y="1194">  │ │ ├── colors@1.1.2 </tspan>
<tspan x="10" y="1210">  │ │ ├─┬ grunt-legacy-log-utils@1.0.0 </tspan>
<tspan x="10" y="1226">  │ │ │ ├─┬ chalk@1.1.3 </tspan>
<tspan x="10" y="1242">  │ │ │ │ ├── ansi-styles@2.2.1 </tspan>
<tspan x="10" y="1258">  │ │ │ │ ├── escape-string-regexp@1.0.5 </tspan>
<tspan x="10" y="1274">  │ │ │ │ ├─┬ has-ansi@2.0.0 </tspan>
<tspan x="10" y="1290">  │ │ │ │ │ └── ansi-regex@2.1.1 </tspan>
<tspan x="10" y="1306">  │ │ │ │ ├── strip-ansi@3.0.1 </tspan>
<tspan x="10" y="1322">  │ │ │ │ └── supports-color@2.0.0 </tspan>
<tspan x="10" y="1338">  │ │ │ └── lodash@4.3.0 </tspan>
<tspan x="10" y="1354">  │ │ ├── hooker@0.2.3 </tspan>
<tspan x="10" y="1370">  │ │ ├── lodash@3.10.1 </tspan>
<tspan x="10" y="1386">  │ │ └── underscore.string@3.2.3 </tspan>
<tspan x="10" y="1402">  │ ├─┬ grunt-legacy-util@1.0.0 </tspan>
<tspan x="10" y="1418">  │ │ ├── getobject@0.1.0 </tspan>
<tspan x="10" y="1434">  │ │ └── lodash@4.3.0 </tspan>
<tspan x="10" y="1450">  │ ├── iconv-lite@0.4.15 </tspan>
<tspan x="10" y="1466">  │ ├─┬ js-yaml@3.5.5 </tspan>
<tspan x="10" y="1482">  │ │ ├─┬ argparse@1.0.9 </tspan>
<tspan x="10" y="1498">  │ │ │ └── sprintf-js@1.0.3 </tspan>
<tspan x="10" y="1514">  │ │ └── esprima@2.7.3 </tspan>
<tspan x="10" y="1530">  │ ├─┬ minimatch@3.0.3 </tspan>
<tspan x="10" y="1546">  │ │ └─┬ brace-expansion@1.1.6 </tspan>
<tspan x="10" y="1562">  │ │   ├── balanced-match@0.4.2 </tspan>
<tspan x="10" y="1578">  │ │   └── concat-map@0.0.1 </tspan>
<tspan x="10" y="1594">  │ ├─┬ nopt@3.0.6 </tspan>
<tspan x="10" y="1610">  │ │ └── abbrev@1.1.0 </tspan>
<tspan x="10" y="1626">  │ ├── path-is-absolute@1.0.1 </tspan>
<tspan x="10" y="1642">  │ └── rimraf@2.2.8 </tspan>
<tspan x="10" y="1658">  └── lodash@4.17.4</tspan>
</text>
</svg>
